<?xml version="1.0" encoding="UTF-8" standalone="no"?><!DOCTYPE svg PUBLIC "-//W3C//DTD SVG 1.1//EN" "http://www.w3.org/Graphics/SVG/1.1/DTD/svg11.dtd"><svg width="100%" height="100%" viewBox="0 0 1857 1857" version="1.1" xmlns="http://www.w3.org/2000/svg" xmlns:xlink="http://www.w3.org/1999/xlink" xml:space="preserve" xmlns:serif="http://www.serif.com/" style="fill-rule:evenodd;clip-rule:evenodd;stroke-linecap:round;stroke-linejoin:round;stroke-miterlimit:1.5;"><g id="Logo"><circle cx="928.244" cy="928.244" r="928.244" style="fill:#90a8ac;"/><path d="M525.393,265.214l103.455,166.091l44.626,224.608l158.087,247.652l-0,90.049l-120.066,28.015l28.015,118.065l-28.015,88.049l-46.025,52.028l26.014,110.061l-108.06,88.048l-120.065,10.006l-58.032,10.005l-84.047,-78.043l-118.064,-206.113l-64.036,-336.185l58.032,-272.149l126.07,-186.102l202.111,-154.085Z" style="fill:#fdc89d;"/><rect x="1245.79" y="235.197" width="84.046" height="332.182" style="fill:#e4d0d0;"/><path d="M537.399,265.214c98.872,153.598 141.26,281.308 112.062,376.207c251.471,329.264 264.145,358.447 40.022,370.203c65.442,96.41 53.392,167.78 8.004,162.089c32.147,34.173 20.698,72.478 -38.021,96.053c76.731,177.253 -41.419,232.513 -279.527,196.316" style="fill:none;stroke:#000;stroke-width:62.5px;"/><path d="M358.965,698.325c-0,0 0.66,15.646 152.392,9.241c8.636,-0.365 15.35,-7.671 14.986,-16.306c-0.365,-8.636 -7.671,-15.35 -16.307,-14.986c-151.732,6.405 -151.071,22.051 -151.071,22.051Z" style="stroke:#000;stroke-width:62.5px;"/><circle cx="919.084" cy="919.084" r="778.626" style="fill:none;stroke:#000;stroke-width:43.07px;"/><path d="M1523.89,807.746c0,-130.615 -106.042,-236.657 -236.657,-236.657c-130.615,-0 -236.657,106.042 -236.657,236.657l-0,194.66c-0,130.615 106.042,236.658 236.657,236.658c130.615,-0 236.657,-106.043 236.657,-236.658l0,-194.66Z" style="fill:#e4d0d0;stroke:#000;stroke-width:62.5px;"/><path d="M1223.86,579.686l0,-362.498" style="fill:none;stroke:#000;stroke-width:62.5px;"/><path d="M1351.85,567.38l-0,-282.155" style="fill:none;stroke:#000;stroke-width:62.5px;"/><path d="M1159.74,1079.66l260.143,0" style="fill:none;stroke:#000;stroke-width:62.5px;"/><path d="M1059.69,839.529l462.254,0" style="fill:none;stroke:#000;stroke-width:62.5px;"/><circle cx="1289.81" cy="839.529" r="111.561" style="fill:#f33;stroke:#000;stroke-width:62.5px;"/><path d="M582.711,1167.71c52.823,10.227 80.63,6.449 138.789,6.003" style="fill:none;stroke:#000;stroke-width:62.5px;"/></g></svg>